<svg width="148" height="24" viewBox="0 0 148 24" fill="none" xmlns="http://www.w3.org/2000/svg">
<path d="M73.5127 14.6206C73.5127 9.7045 77.5235 5.69373 82.4718 5.69373C87.3879 5.69373 91.3987 9.7045 91.3987 14.6206V23.709H86.8706V21.5735C85.8683 22.7697 84.2841 23.578 82.4718 23.578C77.5218 23.5797 73.5127 19.5689 73.5127 14.6206ZM86.8706 14.6206C86.8706 12.194 84.8967 10.2218 82.4718 10.2218C80.013 10.2218 78.0408 12.194 78.0408 14.6206C78.0408 17.0777 80.013 19.0516 82.4718 19.0516C84.8967 19.0516 86.8706 17.0777 86.8706 14.6206Z" fill="#3F51B5"/>
<path d="M0 14.8468C0 9.54282 4.26943 5.75836 9.02382 5.75836C11.9013 5.75836 14.5542 7.18263 16.0091 9.28417L12.7419 12.4543C11.966 10.9348 10.3171 10.2864 9.05445 10.2864C6.79127 10.2864 4.52638 12.0323 4.52638 14.8468C4.52638 17.401 6.53092 19.4719 9.05445 19.4719C10.671 19.4719 12.1583 18.5343 12.7743 17.2717L16.0091 20.4419C14.5865 22.5774 11.9013 24 9.02382 24C4.04311 24 0 19.8939 0 14.8468Z" fill="#3F51B5"/>
<path d="M16.688 14.8792C16.688 9.9308 20.7311 5.8877 25.6795 5.8877C30.6279 5.8877 34.671 9.9308 34.671 14.8792C34.671 19.8599 30.6279 23.8707 25.6795 23.8707C20.7311 23.8707 16.688 19.8599 16.688 14.8792ZM30.1429 14.8792C30.1429 12.422 28.1384 10.4158 25.6795 10.4158C23.2206 10.4158 21.2161 12.422 21.2161 14.8792C21.2161 17.3704 23.2206 19.3426 25.6795 19.3426C28.1384 19.3426 30.1429 17.3704 30.1429 14.8792Z" fill="#3F51B5"/>
<path d="M36.2705 14.8468C36.2705 9.54282 40.5399 5.75836 45.2943 5.75836C48.1718 5.75836 50.8247 7.18263 52.2796 9.28417L49.0124 12.4543C48.2365 10.9348 46.5876 10.2864 45.325 10.2864C43.0618 10.2864 40.7969 12.0323 40.7969 14.8468C40.7969 17.401 42.8014 19.4719 45.325 19.4719C46.9415 19.4719 48.4288 18.5343 49.0448 17.2717L52.2796 20.4419C50.857 22.5774 48.1718 24 45.2943 24C40.3136 24 36.2705 19.8939 36.2705 14.8468Z" fill="#3F51B5"/>
<path d="M71.5713 14.7822V23.709H67.0432V14.7822C67.0432 12.228 65.3926 10.6097 63.0001 10.6097C60.5736 10.6097 58.8923 12.228 58.8923 14.7822V23.709H54.3643V1.0686H58.8923V7.69821C59.8623 6.63128 61.2542 6.08165 63.0001 6.08165C67.8855 6.08335 71.5713 9.67212 71.5713 14.7822Z" fill="#3F51B5"/>
<path d="M102.354 6.40672H106.656V8.41126C107.464 6.85936 109.954 6.30802 112.024 6.40672V10.9348C109.406 10.4822 106.882 12.1311 106.882 14.8486V23.7107H102.354V6.40672Z" fill="#3F51B5"/>
<path d="M97.1349 4.82076C98.4622 4.82076 99.5291 3.65683 99.5291 2.39421C99.5291 1.10096 98.4622 0 97.1349 0C95.8417 0 94.7407 1.09926 94.7407 2.39421C94.7424 3.65683 95.8417 4.82076 97.1349 4.82076Z" fill="#3F51B5"/>
<path d="M99.0425 6.39478V6.40498H95.3874V6.39478H91.1895V6.45944C92.6852 6.76573 94.0006 7.5638 94.9671 8.67328C95.3227 9.07997 95.6324 9.52751 95.8843 10.0125L95.886 10.0074L98.6903 15.7164C98.7107 15.7538 98.7294 15.7896 98.7465 15.8287L98.7516 15.8389L98.7499 15.8406C98.7992 15.9682 98.8281 16.1061 98.8281 16.2507C98.8281 16.8854 98.3142 17.3993 97.6795 17.3993H97.1622V20.2615C97.1622 21.3607 96.2723 22.2507 95.173 22.2507H94.9654V23.7107H99.0391H99.2672H99.6841V6.39478H99.0425Z" fill="#3F51B5"/>
<rect x="116" y="6" width="32" height="15" rx="4" fill="#3F51B5"/>
<path d="M125.359 13.6748H123.558L123.548 12.918H125.184C125.454 12.918 125.69 12.8724 125.892 12.7812C126.093 12.6901 126.25 12.5599 126.36 12.3906C126.474 12.2181 126.531 12.013 126.531 11.7754C126.531 11.515 126.481 11.3034 126.38 11.1406C126.282 10.9746 126.131 10.8542 125.926 10.7793C125.724 10.7012 125.467 10.6621 125.154 10.6621H123.768V17H122.825V9.89062H125.154C125.519 9.89062 125.844 9.92806 126.131 10.0029C126.417 10.0745 126.66 10.1885 126.858 10.3447C127.06 10.4977 127.213 10.693 127.317 10.9307C127.422 11.1683 127.474 11.4531 127.474 11.7852C127.474 12.0781 127.399 12.3434 127.249 12.5811C127.099 12.8154 126.891 13.0075 126.624 13.1572C126.36 13.307 126.051 13.403 125.696 13.4453L125.359 13.6748ZM125.315 17H123.187L123.719 16.2334H125.315C125.615 16.2334 125.869 16.1813 126.077 16.0771C126.289 15.973 126.45 15.8265 126.561 15.6377C126.671 15.4456 126.727 15.2194 126.727 14.959C126.727 14.6953 126.679 14.4674 126.585 14.2754C126.491 14.0833 126.342 13.9352 126.141 13.8311C125.939 13.7269 125.678 13.6748 125.359 13.6748H124.017L124.026 12.918H125.862L126.062 13.1914C126.404 13.2207 126.694 13.3184 126.932 13.4844C127.169 13.6471 127.35 13.8555 127.474 14.1094C127.601 14.3633 127.664 14.6432 127.664 14.9492C127.664 15.3919 127.566 15.7663 127.371 16.0723C127.179 16.375 126.907 16.6061 126.556 16.7656C126.204 16.9219 125.791 17 125.315 17ZM130.911 17.0977C130.543 17.0977 130.21 17.0358 129.91 16.9121C129.614 16.7852 129.359 16.6077 129.144 16.3799C128.932 16.152 128.769 15.8818 128.655 15.5693C128.542 15.2568 128.485 14.915 128.485 14.5439V14.3389C128.485 13.9092 128.548 13.5267 128.675 13.1914C128.802 12.8529 128.974 12.5664 129.193 12.332C129.411 12.0977 129.658 11.9202 129.935 11.7998C130.211 11.6794 130.498 11.6191 130.794 11.6191C131.172 11.6191 131.497 11.6842 131.771 11.8145C132.047 11.9447 132.274 12.127 132.449 12.3613C132.625 12.5924 132.755 12.8659 132.84 13.1816C132.925 13.4941 132.967 13.8359 132.967 14.207V14.6123H129.022V13.875H132.064V13.8066C132.051 13.5723 132.002 13.3444 131.917 13.123C131.836 12.9017 131.706 12.7194 131.527 12.5762C131.348 12.4329 131.103 12.3613 130.794 12.3613C130.589 12.3613 130.4 12.4053 130.228 12.4932C130.055 12.5778 129.907 12.7048 129.783 12.874C129.66 13.0433 129.564 13.25 129.495 13.4941C129.427 13.7383 129.393 14.0199 129.393 14.3389V14.5439C129.393 14.7946 129.427 15.0306 129.495 15.252C129.567 15.4701 129.669 15.6621 129.803 15.8281C129.94 15.9941 130.104 16.1243 130.296 16.2188C130.491 16.3132 130.713 16.3604 130.96 16.3604C131.279 16.3604 131.549 16.2952 131.771 16.165C131.992 16.0348 132.186 15.8607 132.352 15.6426L132.899 16.0771C132.785 16.2497 132.64 16.4141 132.464 16.5703C132.288 16.7266 132.072 16.8535 131.815 16.9512C131.561 17.0488 131.26 17.0977 130.911 17.0977ZM136.034 11.7168V12.4102H133.177V11.7168H136.034ZM134.144 10.4326H135.047V15.6914C135.047 15.8704 135.075 16.0055 135.13 16.0967C135.186 16.1878 135.257 16.248 135.345 16.2773C135.433 16.3066 135.527 16.3213 135.628 16.3213C135.703 16.3213 135.781 16.3148 135.863 16.3018C135.947 16.2855 136.011 16.2725 136.053 16.2627L136.058 17C135.986 17.0228 135.892 17.0439 135.775 17.0635C135.661 17.0863 135.523 17.0977 135.36 17.0977C135.138 17.0977 134.935 17.0537 134.749 16.9658C134.564 16.8779 134.416 16.7314 134.305 16.5264C134.198 16.318 134.144 16.0381 134.144 15.6865V10.4326ZM140.008 16.0967V13.377C140.008 13.1686 139.966 12.988 139.881 12.835C139.8 12.6787 139.676 12.5583 139.51 12.4736C139.344 12.389 139.139 12.3467 138.895 12.3467C138.667 12.3467 138.467 12.3857 138.295 12.4639C138.125 12.542 137.992 12.6445 137.894 12.7715C137.8 12.8984 137.753 13.0352 137.753 13.1816H136.849C136.849 12.9928 136.898 12.8057 136.996 12.6201C137.093 12.4346 137.233 12.2669 137.416 12.1172C137.601 11.9642 137.823 11.8438 138.08 11.7559C138.34 11.6647 138.63 11.6191 138.949 11.6191C139.333 11.6191 139.671 11.6842 139.964 11.8145C140.261 11.9447 140.492 12.1416 140.658 12.4053C140.827 12.6657 140.912 12.9928 140.912 13.3867V15.8477C140.912 16.0234 140.926 16.2106 140.956 16.4092C140.988 16.6077 141.035 16.7786 141.097 16.9219V17H140.155C140.109 16.8958 140.074 16.7575 140.047 16.585C140.021 16.4092 140.008 16.2464 140.008 16.0967ZM140.165 13.7969L140.174 14.4316H139.261C139.004 14.4316 138.775 14.4528 138.573 14.4951C138.371 14.5342 138.202 14.5944 138.065 14.6758C137.928 14.7572 137.824 14.8597 137.753 14.9834C137.681 15.1038 137.645 15.2454 137.645 15.4082C137.645 15.5742 137.683 15.7256 137.757 15.8623C137.832 15.999 137.945 16.1081 138.094 16.1895C138.247 16.2676 138.435 16.3066 138.656 16.3066C138.933 16.3066 139.177 16.248 139.388 16.1309C139.6 16.0137 139.768 15.8704 139.891 15.7012C140.018 15.5319 140.087 15.3675 140.096 15.208L140.482 15.6426C140.459 15.7793 140.397 15.9307 140.296 16.0967C140.196 16.2627 140.06 16.4222 139.891 16.5752C139.725 16.7249 139.527 16.8503 139.296 16.9512C139.068 17.0488 138.81 17.0977 138.524 17.0977C138.166 17.0977 137.852 17.0277 137.582 16.8877C137.315 16.7477 137.106 16.5605 136.957 16.3262C136.81 16.0885 136.737 15.8232 136.737 15.5303C136.737 15.2471 136.792 14.998 136.903 14.7832C137.014 14.5651 137.173 14.3844 137.381 14.2412C137.59 14.0947 137.84 13.984 138.133 13.9092C138.426 13.8343 138.754 13.7969 139.115 13.7969H140.165Z" fill="white"/>
</svg>
